<?xml version="1.0" encoding="UTF-8" standalone="no"?>
<!DOCTYPE svg PUBLIC "-//W3C//DTD SVG 1.1//EN"
 "http://www.w3.org/Graphics/SVG/1.1/DTD/svg11.dtd">
<!-- Generated by graphviz version 2.43.0 (0)
 -->
<!-- Title: %3 Pages: 1 -->
<svg width="5577pt" height="260pt"
 viewBox="0.00 0.00 5577.49 260.00" xmlns="http://www.w3.org/2000/svg" xmlns:xlink="http://www.w3.org/1999/xlink">
<g id="graph0" class="graph" transform="scale(1 1) rotate(0) translate(4 256)">
<title>%3</title>
<polygon fill="white" stroke="transparent" points="-4,4 -4,-256 5573.49,-256 5573.49,4 -4,4"/>
<!-- King John -->
<g id="node1" class="node">
<title>King John</title>
<ellipse fill="none" stroke="black" cx="102.14" cy="-234" rx="55.79" ry="18"/>
<text text-anchor="middle" x="102.14" y="-230.3" font-family="Times,serif" font-size="14.00">King John</text>
</g>
<!-- Henry VIII -->
<g id="node2" class="node">
<title>Henry VIII</title>
<ellipse fill="none" stroke="black" cx="59.14" cy="-162" rx="59.29" ry="18"/>
<text text-anchor="middle" x="59.14" y="-158.3" font-family="Times,serif" font-size="14.00">Henry VIII</text>
</g>
<!-- King John&#45;&#45;Henry VIII -->
<g id="edge1" class="edge">
<title>King John&#45;&#45;Henry VIII</title>
<path fill="none" stroke="black" d="M91.74,-216.05C84.97,-205.05 76.2,-190.76 69.46,-179.79"/>
</g>
<!-- Trilby -->
<g id="node3" class="node">
<title>Trilby</title>
<ellipse fill="none" stroke="black" cx="103.14" cy="-90" rx="38.19" ry="18"/>
<text text-anchor="middle" x="103.14" y="-86.3" font-family="Times,serif" font-size="14.00">Trilby</text>
</g>
<!-- King John&#45;&#45;Trilby -->
<g id="edge2" class="edge">
<title>King John&#45;&#45;Trilby</title>
<path fill="none" stroke="black" d="M112.51,-216.03C118.05,-205.96 124.3,-192.71 127.14,-180 130.64,-164.39 130.52,-159.64 127.14,-144 124.37,-131.16 118.23,-117.7 112.85,-107.55"/>
</g>
<!-- Henry VIII&#45;&#45;Trilby -->
<g id="edge7" class="edge">
<title>Henry VIII&#45;&#45;Trilby</title>
<path fill="none" stroke="black" d="M69.8,-144.05C76.71,-133.05 85.69,-118.76 92.59,-107.79"/>
</g>
<!-- The Fairylogue and Radio&#45;Plays -->
<g id="node4" class="node">
<title>The Fairylogue and Radio&#45;Plays</title>
<ellipse fill="none" stroke="black" cx="333.14" cy="-234" rx="157.07" ry="18"/>
<text text-anchor="middle" x="333.14" y="-230.3" font-family="Times,serif" font-size="14.00">The Fairylogue and Radio&#45;Plays</text>
</g>
<!-- The Last Egyptian -->
<g id="node5" class="node">
<title>The Last Egyptian</title>
<ellipse fill="none" stroke="black" cx="333.14" cy="-162" rx="95.58" ry="18"/>
<text text-anchor="middle" x="333.14" y="-158.3" font-family="Times,serif" font-size="14.00">The Last Egyptian</text>
</g>
<!-- The Fairylogue and Radio&#45;Plays&#45;&#45;The Last Egyptian -->
<g id="edge3" class="edge">
<title>The Fairylogue and Radio&#45;Plays&#45;&#45;The Last Egyptian</title>
<path fill="none" stroke="black" d="M333.14,-215.7C333.14,-204.85 333.14,-190.92 333.14,-180.1"/>
</g>
<!-- Fabricación del corcho en Sant Feliu de Guixols -->
<g id="node6" class="node">
<title>Fabricación del corcho en Sant Feliu de Guixols</title>
<ellipse fill="none" stroke="black" cx="740.14" cy="-234" rx="231.26" ry="18"/>
<text text-anchor="middle" x="740.14" y="-230.3" font-family="Times,serif" font-size="14.00">Fabricación del corcho en Sant Feliu de Guixols</text>
</g>
<!-- Beby y su circo -->
<g id="node7" class="node">
<title>Beby y su circo</title>
<ellipse fill="none" stroke="black" cx="671.14" cy="-18" rx="81.49" ry="18"/>
<text text-anchor="middle" x="671.14" y="-14.3" font-family="Times,serif" font-size="14.00">Beby y su circo</text>
</g>
<!-- Fabricación del corcho en Sant Feliu de Guixols&#45;&#45;Beby y su circo -->
<g id="edge4" class="edge">
<title>Fabricación del corcho en Sant Feliu de Guixols&#45;&#45;Beby y su circo</title>
<path fill="none" stroke="black" d="M674.28,-216.65C654.26,-208.66 633.94,-196.96 620.14,-180 594.63,-148.62 601.07,-131.45 601.14,-91"/>
<path fill="none" stroke="black" d="M601.14,-89C600.78,-65.29 621.15,-46.8 640,-34.79"/>
</g>
<!-- Lucha por la herencia -->
<g id="node8" class="node">
<title>Lucha por la herencia</title>
<ellipse fill="none" stroke="black" cx="740.14" cy="-162" rx="111.28" ry="18"/>
<text text-anchor="middle" x="740.14" y="-158.3" font-family="Times,serif" font-size="14.00">Lucha por la herencia</text>
</g>
<!-- Fabricación del corcho en Sant Feliu de Guixols&#45;&#45;Lucha por la herencia -->
<g id="edge5" class="edge">
<title>Fabricación del corcho en Sant Feliu de Guixols&#45;&#45;Lucha por la herencia</title>
<path fill="none" stroke="black" d="M740.14,-215.7C740.14,-204.85 740.14,-190.92 740.14,-180.1"/>
</g>
<!-- Eclipse de sol -->
<g id="node9" class="node">
<title>Eclipse de sol</title>
<ellipse fill="none" stroke="black" cx="740.14" cy="-90" rx="74.99" ry="18"/>
<text text-anchor="middle" x="740.14" y="-86.3" font-family="Times,serif" font-size="14.00">Eclipse de sol</text>
</g>
<!-- Fabricación del corcho en Sant Feliu de Guixols&#45;&#45;Eclipse de sol -->
<g id="edge6" class="edge">
<title>Fabricación del corcho en Sant Feliu de Guixols&#45;&#45;Eclipse de sol</title>
<path fill="none" stroke="black" d="M811.65,-216.84C830.6,-208.95 848.89,-197.27 860.14,-180 868.88,-166.59 868.88,-157.41 860.14,-144 845.97,-122.25 820.63,-109.36 796.87,-101.75"/>
</g>
<!-- Lucha por la herencia&#45;&#45;Beby y su circo -->
<g id="edge9" class="edge">
<title>Lucha por la herencia&#45;&#45;Beby y su circo</title>
<path fill="none" stroke="black" d="M660.85,-149.21C629.62,-139.65 601.09,-122.34 601.14,-91"/>
</g>
<!-- Lucha por la herencia&#45;&#45;Eclipse de sol -->
<g id="edge10" class="edge">
<title>Lucha por la herencia&#45;&#45;Eclipse de sol</title>
<path fill="none" stroke="black" d="M740.14,-143.7C740.14,-132.85 740.14,-118.92 740.14,-108.1"/>
</g>
<!-- Eclipse de sol&#45;&#45;Beby y su circo -->
<g id="edge11" class="edge">
<title>Eclipse de sol&#45;&#45;Beby y su circo</title>
<path fill="none" stroke="black" d="M723.79,-72.41C712.95,-61.41 698.77,-47.03 687.86,-35.96"/>
</g>
<!-- The Infant at Snakeville -->
<g id="node10" class="node">
<title>The Infant at Snakeville</title>
<ellipse fill="none" stroke="black" cx="1111.14" cy="-234" rx="121.58" ry="18"/>
<text text-anchor="middle" x="1111.14" y="-230.3" font-family="Times,serif" font-size="14.00">The Infant at Snakeville</text>
</g>
<!-- Broncho Billy&#39;s True Love -->
<g id="node11" class="node">
<title>Broncho Billy&#39;s True Love</title>
<ellipse fill="none" stroke="black" cx="1111.14" cy="-162" rx="129.98" ry="18"/>
<text text-anchor="middle" x="1111.14" y="-158.3" font-family="Times,serif" font-size="14.00">Broncho Billy&#39;s True Love</text>
</g>
<!-- The Infant at Snakeville&#45;&#45;Broncho Billy&#39;s True Love -->
<g id="edge8" class="edge">
<title>The Infant at Snakeville&#45;&#45;Broncho Billy&#39;s True Love</title>
<path fill="none" stroke="black" d="M1111.14,-215.7C1111.14,-204.85 1111.14,-190.92 1111.14,-180.1"/>
</g>
<!-- What Happened to Mary -->
<g id="node12" class="node">
<title>What Happened to Mary</title>
<ellipse fill="none" stroke="black" cx="1375.14" cy="-234" rx="124.58" ry="18"/>
<text text-anchor="middle" x="1375.14" y="-230.3" font-family="Times,serif" font-size="14.00">What Happened to Mary</text>
</g>
<!-- Who Will Marry Mary? -->
<g id="node13" class="node">
<title>Who Will Marry Mary?</title>
<ellipse fill="none" stroke="black" cx="1344.14" cy="-90" rx="116.18" ry="18"/>
<text text-anchor="middle" x="1344.14" y="-86.3" font-family="Times,serif" font-size="14.00">Who Will Marry Mary?</text>
</g>
<!-- What Happened to Mary&#45;&#45;Who Will Marry Mary? -->
<g id="edge12" class="edge">
<title>What Happened to Mary&#45;&#45;Who Will Marry Mary?</title>
<path fill="none" stroke="black" d="M1356.54,-215.76C1347.61,-206.2 1337.85,-193.53 1333.14,-180 1324.8,-156.03 1331.54,-126.51 1337.54,-108.21"/>
</g>
<!-- Hard Cash -->
<g id="node14" class="node">
<title>Hard Cash</title>
<ellipse fill="none" stroke="black" cx="1402.14" cy="-162" rx="59.59" ry="18"/>
<text text-anchor="middle" x="1402.14" y="-158.3" font-family="Times,serif" font-size="14.00">Hard Cash</text>
</g>
<!-- What Happened to Mary&#45;&#45;Hard Cash -->
<g id="edge13" class="edge">
<title>What Happened to Mary&#45;&#45;Hard Cash</title>
<path fill="none" stroke="black" d="M1381.82,-215.7C1386,-204.85 1391.38,-190.92 1395.55,-180.1"/>
</g>
<!-- Hard Cash&#45;&#45;Who Will Marry Mary? -->
<g id="edge14" class="edge">
<title>Hard Cash&#45;&#45;Who Will Marry Mary?</title>
<path fill="none" stroke="black" d="M1388.4,-144.41C1379.29,-133.41 1367.37,-119.03 1358.19,-107.96"/>
</g>
<!-- Brewster&#39;s Millions -->
<g id="node15" class="node">
<title>Brewster&#39;s Millions</title>
<ellipse fill="none" stroke="black" cx="1619.14" cy="-234" rx="100.98" ry="18"/>
<text text-anchor="middle" x="1619.14" y="-230.3" font-family="Times,serif" font-size="14.00">Brewster&#39;s Millions</text>
</g>
<!-- The House of Mirth -->
<g id="node16" class="node">
<title>The House of Mirth</title>
<ellipse fill="none" stroke="black" cx="1653.14" cy="-18" rx="100.98" ry="18"/>
<text text-anchor="middle" x="1653.14" y="-14.3" font-family="Times,serif" font-size="14.00">The House of Mirth</text>
</g>
<!-- Brewster&#39;s Millions&#45;&#45;The House of Mirth -->
<g id="edge15" class="edge">
<title>Brewster&#39;s Millions&#45;&#45;The House of Mirth</title>
<path fill="none" stroke="black" d="M1598.05,-216.14C1584.41,-203.27 1569.02,-184.18 1568.14,-163"/>
<path fill="none" stroke="black" d="M1568.14,-161C1566.47,-120.59 1565.93,-106.43 1587.14,-72 1596.32,-57.11 1611.23,-44.61 1624.55,-35.5"/>
</g>
<!-- After Five -->
<g id="node17" class="node">
<title>After Five</title>
<ellipse fill="none" stroke="black" cx="1653.14" cy="-90" rx="57.39" ry="18"/>
<text text-anchor="middle" x="1653.14" y="-86.3" font-family="Times,serif" font-size="14.00">After Five</text>
</g>
<!-- Brewster&#39;s Millions&#45;&#45;After Five -->
<g id="edge16" class="edge">
<title>Brewster&#39;s Millions&#45;&#45;After Five</title>
<path fill="none" stroke="black" d="M1568.14,-161C1567.02,-133.88 1593.29,-115.31 1616.92,-104.15"/>
</g>
<!-- Ready Money -->
<g id="node18" class="node">
<title>Ready Money</title>
<ellipse fill="none" stroke="black" cx="1669.14" cy="-162" rx="73.39" ry="18"/>
<text text-anchor="middle" x="1669.14" y="-158.3" font-family="Times,serif" font-size="14.00">Ready Money</text>
</g>
<!-- Brewster&#39;s Millions&#45;&#45;Ready Money -->
<g id="edge17" class="edge">
<title>Brewster&#39;s Millions&#45;&#45;Ready Money</title>
<path fill="none" stroke="black" d="M1631.25,-216.05C1639.11,-205.05 1649.31,-190.76 1657.15,-179.79"/>
</g>
<!-- After Five&#45;&#45;The House of Mirth -->
<g id="edge31" class="edge">
<title>After Five&#45;&#45;The House of Mirth</title>
<path fill="none" stroke="black" d="M1653.14,-71.7C1653.14,-60.85 1653.14,-46.92 1653.14,-36.1"/>
</g>
<!-- Ready Money&#45;&#45;The House of Mirth -->
<g id="edge26" class="edge">
<title>Ready Money&#45;&#45;The House of Mirth</title>
<path fill="none" stroke="black" d="M1690.96,-144.66C1701.63,-135.26 1713.4,-122.46 1719.14,-108 1725.05,-93.13 1726.06,-86.43 1719.14,-72 1711.71,-56.5 1697.29,-44.09 1683.81,-35.2"/>
</g>
<!-- Ready Money&#45;&#45;After Five -->
<g id="edge27" class="edge">
<title>Ready Money&#45;&#45;After Five</title>
<path fill="none" stroke="black" d="M1665.19,-143.7C1662.71,-132.85 1659.53,-118.92 1657.05,-108.1"/>
</g>
<!-- The Criminal Code -->
<g id="node19" class="node">
<title>The Criminal Code</title>
<ellipse fill="none" stroke="black" cx="2031.14" cy="-234" rx="96.68" ry="18"/>
<text text-anchor="middle" x="2031.14" y="-230.3" font-family="Times,serif" font-size="14.00">The Criminal Code</text>
</g>
<!-- The Man Who Could Not Lose -->
<g id="node20" class="node">
<title>The Man Who Could Not Lose</title>
<ellipse fill="none" stroke="black" cx="1909.14" cy="-162" rx="148.67" ry="18"/>
<text text-anchor="middle" x="1909.14" y="-158.3" font-family="Times,serif" font-size="14.00">The Man Who Could Not Lose</text>
</g>
<!-- The Criminal Code&#45;&#45;The Man Who Could Not Lose -->
<g id="edge18" class="edge">
<title>The Criminal Code&#45;&#45;The Man Who Could Not Lose</title>
<path fill="none" stroke="black" d="M2002.85,-216.76C1983.56,-205.7 1958.08,-191.08 1938.56,-179.88"/>
</g>
<!-- Who Pays? -->
<g id="node21" class="node">
<title>Who Pays?</title>
<ellipse fill="none" stroke="black" cx="2002.14" cy="-18" rx="60.39" ry="18"/>
<text text-anchor="middle" x="2002.14" y="-14.3" font-family="Times,serif" font-size="14.00">Who Pays?</text>
</g>
<!-- The Criminal Code&#45;&#45;Who Pays? -->
<g id="edge19" class="edge">
<title>The Criminal Code&#45;&#45;Who Pays?</title>
<path fill="none" stroke="black" d="M2086.14,-161C2088.69,-120.11 2083.74,-106.81 2062.14,-72 2052.91,-57.12 2038.23,-44.05 2025.71,-34.61"/>
</g>
<!-- St. Elmo -->
<g id="node22" class="node">
<title>St. Elmo</title>
<ellipse fill="none" stroke="black" cx="2002.14" cy="-90" rx="50.89" ry="18"/>
<text text-anchor="middle" x="2002.14" y="-86.3" font-family="Times,serif" font-size="14.00">St. Elmo</text>
</g>
<!-- The Criminal Code&#45;&#45;St. Elmo -->
<g id="edge20" class="edge">
<title>The Criminal Code&#45;&#45;St. Elmo</title>
<path fill="none" stroke="black" d="M2053.65,-216.48C2068.24,-203.78 2084.79,-184.75 2086.14,-163"/>
<path fill="none" stroke="black" d="M2086.14,-161C2087.87,-133.34 2060.3,-114.46 2036.3,-103.34"/>
</g>
<!-- The Man Who Could Not Lose&#45;&#45;Who Pays? -->
<g id="edge21" class="edge">
<title>The Man Who Could Not Lose&#45;&#45;Who Pays?</title>
<path fill="none" stroke="black" d="M1912.86,-143.76C1917.5,-124.91 1926.77,-94.42 1942.14,-72 1952.13,-57.44 1966.97,-44.29 1979.4,-34.72"/>
</g>
<!-- The Man Who Could Not Lose&#45;&#45;St. Elmo -->
<g id="edge22" class="edge">
<title>The Man Who Could Not Lose&#45;&#45;St. Elmo</title>
<path fill="none" stroke="black" d="M1931.66,-144.05C1946.82,-132.64 1966.66,-117.71 1981.43,-106.59"/>
</g>
<!-- St. Elmo&#45;&#45;Who Pays? -->
<g id="edge30" class="edge">
<title>St. Elmo&#45;&#45;Who Pays?</title>
<path fill="none" stroke="black" d="M2002.14,-71.7C2002.14,-60.85 2002.14,-46.92 2002.14,-36.1"/>
</g>
<!-- Manon Lescaut -->
<g id="node23" class="node">
<title>Manon Lescaut</title>
<ellipse fill="none" stroke="black" cx="2294.14" cy="-234" rx="81.49" ry="18"/>
<text text-anchor="middle" x="2294.14" y="-230.3" font-family="Times,serif" font-size="14.00">Manon Lescaut</text>
</g>
<!-- The Kiss of Hate -->
<g id="node24" class="node">
<title>The Kiss of Hate</title>
<ellipse fill="none" stroke="black" cx="2294.14" cy="-162" rx="87.18" ry="18"/>
<text text-anchor="middle" x="2294.14" y="-158.3" font-family="Times,serif" font-size="14.00">The Kiss of Hate</text>
</g>
<!-- Manon Lescaut&#45;&#45;The Kiss of Hate -->
<g id="edge23" class="edge">
<title>Manon Lescaut&#45;&#45;The Kiss of Hate</title>
<path fill="none" stroke="black" d="M2294.14,-215.7C2294.14,-204.85 2294.14,-190.92 2294.14,-180.1"/>
</g>
<!-- Panthea -->
<g id="node25" class="node">
<title>Panthea</title>
<ellipse fill="none" stroke="black" cx="2294.14" cy="-90" rx="48.19" ry="18"/>
<text text-anchor="middle" x="2294.14" y="-86.3" font-family="Times,serif" font-size="14.00">Panthea</text>
</g>
<!-- Manon Lescaut&#45;&#45;Panthea -->
<g id="edge24" class="edge">
<title>Manon Lescaut&#45;&#45;Panthea</title>
<path fill="none" stroke="black" d="M2247.73,-219.1C2228.89,-210.91 2209.03,-198.44 2198.14,-180 2190.01,-166.22 2190.01,-157.78 2198.14,-144 2210.72,-122.69 2235.28,-109.35 2256.41,-101.39"/>
</g>
<!-- Fedora -->
<g id="node26" class="node">
<title>Fedora</title>
<ellipse fill="none" stroke="black" cx="2351.14" cy="-18" rx="42.79" ry="18"/>
<text text-anchor="middle" x="2351.14" y="-14.3" font-family="Times,serif" font-size="14.00">Fedora</text>
</g>
<!-- Manon Lescaut&#45;&#45;Fedora -->
<g id="edge25" class="edge">
<title>Manon Lescaut&#45;&#45;Fedora</title>
<path fill="none" stroke="black" d="M2337.07,-218.7C2356.04,-210.28 2376.99,-197.74 2390.14,-180 2414.25,-147.52 2409.23,-131.45 2409.14,-91"/>
</g>
<!-- The Kiss of Hate&#45;&#45;Panthea -->
<g id="edge51" class="edge">
<title>The Kiss of Hate&#45;&#45;Panthea</title>
<path fill="none" stroke="black" d="M2294.14,-143.7C2294.14,-132.85 2294.14,-118.92 2294.14,-108.1"/>
</g>
<!-- The Kiss of Hate&#45;&#45;Fedora -->
<g id="edge52" class="edge">
<title>The Kiss of Hate&#45;&#45;Fedora</title>
<path fill="none" stroke="black" d="M2351.69,-148.44C2380.46,-138.42 2409.21,-120.92 2409.14,-91"/>
<path fill="none" stroke="black" d="M2409.14,-89C2409.1,-65.8 2389.98,-46.16 2373.71,-33.65"/>
</g>
<!-- Panthea&#45;&#45;Fedora -->
<g id="edge62" class="edge">
<title>Panthea&#45;&#45;Fedora</title>
<path fill="none" stroke="black" d="M2307.65,-72.41C2316.74,-61.25 2328.67,-46.6 2337.73,-35.47"/>
</g>
<!-- The Squaw Man -->
<g id="node27" class="node">
<title>The Squaw Man</title>
<ellipse fill="none" stroke="black" cx="2617.14" cy="-234" rx="85.29" ry="18"/>
<text text-anchor="middle" x="2617.14" y="-230.3" font-family="Times,serif" font-size="14.00">The Squaw Man</text>
</g>
<!-- The Battle of Hearts -->
<g id="node28" class="node">
<title>The Battle of Hearts</title>
<ellipse fill="none" stroke="black" cx="2542.14" cy="-162" rx="105.08" ry="18"/>
<text text-anchor="middle" x="2542.14" y="-158.3" font-family="Times,serif" font-size="14.00">The Battle of Hearts</text>
</g>
<!-- The Squaw Man&#45;&#45;The Battle of Hearts -->
<g id="edge28" class="edge">
<title>The Squaw Man&#45;&#45;The Battle of Hearts</title>
<path fill="none" stroke="black" d="M2598.99,-216.05C2587.2,-205.05 2571.89,-190.76 2560.13,-179.79"/>
</g>
<!-- A Man of Sorrow -->
<g id="node29" class="node">
<title>A Man of Sorrow</title>
<ellipse fill="none" stroke="black" cx="2587.14" cy="-90" rx="89.08" ry="18"/>
<text text-anchor="middle" x="2587.14" y="-86.3" font-family="Times,serif" font-size="14.00">A Man of Sorrow</text>
</g>
<!-- The Squaw Man&#45;&#45;A Man of Sorrow -->
<g id="edge29" class="edge">
<title>The Squaw Man&#45;&#45;A Man of Sorrow</title>
<path fill="none" stroke="black" d="M2633.66,-216.06C2649.17,-198 2668.3,-168.66 2656.14,-144 2648.33,-128.15 2633.25,-115.71 2619.17,-106.89"/>
</g>
<!-- The Battle of Hearts&#45;&#45;A Man of Sorrow -->
<g id="edge48" class="edge">
<title>The Battle of Hearts&#45;&#45;A Man of Sorrow</title>
<path fill="none" stroke="black" d="M2553.04,-144.05C2560.01,-133.21 2569.03,-119.18 2576.04,-108.28"/>
</g>
<!-- The Birth of a Nation -->
<g id="node30" class="node">
<title>The Birth of a Nation</title>
<ellipse fill="none" stroke="black" cx="2835.14" cy="-234" rx="108.58" ry="18"/>
<text text-anchor="middle" x="2835.14" y="-230.3" font-family="Times,serif" font-size="14.00">The Birth of a Nation</text>
</g>
<!-- Intolerance -->
<g id="node31" class="node">
<title>Intolerance</title>
<ellipse fill="none" stroke="black" cx="2830.14" cy="-162" rx="63.89" ry="18"/>
<text text-anchor="middle" x="2830.14" y="-158.3" font-family="Times,serif" font-size="14.00">Intolerance</text>
</g>
<!-- The Birth of a Nation&#45;&#45;Intolerance -->
<g id="edge32" class="edge">
<title>The Birth of a Nation&#45;&#45;Intolerance</title>
<path fill="none" stroke="black" d="M2833.91,-215.7C2833.13,-204.85 2832.14,-190.92 2831.37,-180.1"/>
</g>
<!-- Broken Blossoms -->
<g id="node32" class="node">
<title>Broken Blossoms</title>
<ellipse fill="none" stroke="black" cx="2876.14" cy="-90" rx="90.98" ry="18"/>
<text text-anchor="middle" x="2876.14" y="-86.3" font-family="Times,serif" font-size="14.00">Broken Blossoms</text>
</g>
<!-- The Birth of a Nation&#45;&#45;Broken Blossoms -->
<g id="edge33" class="edge">
<title>The Birth of a Nation&#45;&#45;Broken Blossoms</title>
<path fill="none" stroke="black" d="M2867.07,-216.78C2880.85,-207.95 2895.52,-195.6 2903.14,-180 2914.77,-156.21 2900.42,-126.37 2888.6,-108"/>
</g>
<!-- Intolerance&#45;&#45;Broken Blossoms -->
<g id="edge49" class="edge">
<title>Intolerance&#45;&#45;Broken Blossoms</title>
<path fill="none" stroke="black" d="M2841.28,-144.05C2848.41,-133.21 2857.62,-119.18 2864.79,-108.28"/>
</g>
<!-- The Clemenceau Case -->
<g id="node33" class="node">
<title>The Clemenceau Case</title>
<ellipse fill="none" stroke="black" cx="3079.14" cy="-234" rx="112.38" ry="18"/>
<text text-anchor="middle" x="3079.14" y="-230.3" font-family="Times,serif" font-size="14.00">The Clemenceau Case</text>
</g>
<!-- A Fool There Was -->
<g id="node34" class="node">
<title>A Fool There Was</title>
<ellipse fill="none" stroke="black" cx="3079.14" cy="-162" rx="90.98" ry="18"/>
<text text-anchor="middle" x="3079.14" y="-158.3" font-family="Times,serif" font-size="14.00">A Fool There Was</text>
</g>
<!-- The Clemenceau Case&#45;&#45;A Fool There Was -->
<g id="edge36" class="edge">
<title>The Clemenceau Case&#45;&#45;A Fool There Was</title>
<path fill="none" stroke="black" d="M3079.14,-215.7C3079.14,-204.85 3079.14,-190.92 3079.14,-180.1"/>
</g>
<!-- Camille -->
<g id="node35" class="node">
<title>Camille</title>
<ellipse fill="none" stroke="black" cx="3079.14" cy="-90" rx="46.29" ry="18"/>
<text text-anchor="middle" x="3079.14" y="-86.3" font-family="Times,serif" font-size="14.00">Camille</text>
</g>
<!-- The Clemenceau Case&#45;&#45;Camille -->
<g id="edge37" class="edge">
<title>The Clemenceau Case&#45;&#45;Camille</title>
<path fill="none" stroke="black" d="M3027.18,-218C3008.7,-209.88 2989.83,-197.76 2979.14,-180 2970.89,-166.29 2970.89,-157.71 2979.14,-144 2992.62,-121.61 3019.08,-108.18 3041.4,-100.44"/>
</g>
<!-- When a Woman Sins -->
<g id="node36" class="node">
<title>When a Woman Sins</title>
<ellipse fill="none" stroke="black" cx="3138.14" cy="-18" rx="105.08" ry="18"/>
<text text-anchor="middle" x="3138.14" y="-14.3" font-family="Times,serif" font-size="14.00">When a Woman Sins</text>
</g>
<!-- The Clemenceau Case&#45;&#45;When a Woman Sins -->
<g id="edge38" class="edge">
<title>The Clemenceau Case&#45;&#45;When a Woman Sins</title>
<path fill="none" stroke="black" d="M3127.17,-217.66C3146.01,-209.35 3166.18,-197.17 3179.14,-180 3203.52,-147.72 3198.23,-131.45 3198.14,-91"/>
</g>
<!-- A Fool There Was&#45;&#45;Camille -->
<g id="edge40" class="edge">
<title>A Fool There Was&#45;&#45;Camille</title>
<path fill="none" stroke="black" d="M3079.14,-143.7C3079.14,-132.85 3079.14,-118.92 3079.14,-108.1"/>
</g>
<!-- A Fool There Was&#45;&#45;When a Woman Sins -->
<g id="edge41" class="edge">
<title>A Fool There Was&#45;&#45;When a Woman Sins</title>
<path fill="none" stroke="black" d="M3140.09,-148.54C3169.38,-138.63 3198.21,-121.2 3198.14,-91"/>
<path fill="none" stroke="black" d="M3198.14,-89C3198.1,-66.75 3180.41,-48.03 3164.26,-35.56"/>
</g>
<!-- Camille&#45;&#45;When a Woman Sins -->
<g id="edge59" class="edge">
<title>Camille&#45;&#45;When a Woman Sins</title>
<path fill="none" stroke="black" d="M3092.83,-72.76C3102.09,-61.78 3114.3,-47.29 3123.71,-36.12"/>
</g>
<!-- The Concealed Truth -->
<g id="node37" class="node">
<title>The Concealed Truth</title>
<ellipse fill="none" stroke="black" cx="3317.14" cy="-234" rx="107.48" ry="18"/>
<text text-anchor="middle" x="3317.14" y="-230.3" font-family="Times,serif" font-size="14.00">The Concealed Truth</text>
</g>
<!-- Forbidden Fruit -->
<g id="node38" class="node">
<title>Forbidden Fruit</title>
<ellipse fill="none" stroke="black" cx="3317.14" cy="-162" rx="84.49" ry="18"/>
<text text-anchor="middle" x="3317.14" y="-158.3" font-family="Times,serif" font-size="14.00">Forbidden Fruit</text>
</g>
<!-- The Concealed Truth&#45;&#45;Forbidden Fruit -->
<g id="edge39" class="edge">
<title>The Concealed Truth&#45;&#45;Forbidden Fruit</title>
<path fill="none" stroke="black" d="M3317.14,-215.7C3317.14,-204.85 3317.14,-190.92 3317.14,-180.1"/>
</g>
<!-- The Man Who Couldn&#39;t Beat God -->
<g id="node39" class="node">
<title>The Man Who Couldn&#39;t Beat God</title>
<ellipse fill="none" stroke="black" cx="3605.14" cy="-234" rx="162.47" ry="18"/>
<text text-anchor="middle" x="3605.14" y="-230.3" font-family="Times,serif" font-size="14.00">The Man Who Couldn&#39;t Beat God</text>
</g>
<!-- The Crimson Stain Mystery -->
<g id="node40" class="node">
<title>The Crimson Stain Mystery</title>
<ellipse fill="none" stroke="black" cx="3605.14" cy="-162" rx="138.38" ry="18"/>
<text text-anchor="middle" x="3605.14" y="-158.3" font-family="Times,serif" font-size="14.00">The Crimson Stain Mystery</text>
</g>
<!-- The Man Who Couldn&#39;t Beat God&#45;&#45;The Crimson Stain Mystery -->
<g id="edge42" class="edge">
<title>The Man Who Couldn&#39;t Beat God&#45;&#45;The Crimson Stain Mystery</title>
<path fill="none" stroke="black" d="M3605.14,-215.7C3605.14,-204.85 3605.14,-190.92 3605.14,-180.1"/>
</g>
<!-- The Quest -->
<g id="node41" class="node">
<title>The Quest</title>
<ellipse fill="none" stroke="black" cx="3862.14" cy="-234" rx="57.69" ry="18"/>
<text text-anchor="middle" x="3862.14" y="-230.3" font-family="Times,serif" font-size="14.00">The Quest</text>
</g>
<!-- Mind the Paint Girl -->
<g id="node42" class="node">
<title>Mind the Paint Girl</title>
<ellipse fill="none" stroke="black" cx="3862.14" cy="-162" rx="100.18" ry="18"/>
<text text-anchor="middle" x="3862.14" y="-158.3" font-family="Times,serif" font-size="14.00">Mind the Paint Girl</text>
</g>
<!-- The Quest&#45;&#45;Mind the Paint Girl -->
<g id="edge43" class="edge">
<title>The Quest&#45;&#45;Mind the Paint Girl</title>
<path fill="none" stroke="black" d="M3862.14,-215.7C3862.14,-204.85 3862.14,-190.92 3862.14,-180.1"/>
</g>
<!-- The Voice in the Fog -->
<g id="node43" class="node">
<title>The Voice in the Fog</title>
<ellipse fill="none" stroke="black" cx="4061.14" cy="-234" rx="104.78" ry="18"/>
<text text-anchor="middle" x="4061.14" y="-230.3" font-family="Times,serif" font-size="14.00">The Voice in the Fog</text>
</g>
<!-- The Smugglers -->
<g id="node44" class="node">
<title>The Smugglers</title>
<ellipse fill="none" stroke="black" cx="4061.14" cy="-162" rx="81.49" ry="18"/>
<text text-anchor="middle" x="4061.14" y="-158.3" font-family="Times,serif" font-size="14.00">The Smugglers</text>
</g>
<!-- The Voice in the Fog&#45;&#45;The Smugglers -->
<g id="edge44" class="edge">
<title>The Voice in the Fog&#45;&#45;The Smugglers</title>
<path fill="none" stroke="black" d="M4061.14,-215.7C4061.14,-204.85 4061.14,-190.92 4061.14,-180.1"/>
</g>
<!-- Young Romance -->
<g id="node45" class="node">
<title>Young Romance</title>
<ellipse fill="none" stroke="black" cx="4279.14" cy="-234" rx="84.49" ry="18"/>
<text text-anchor="middle" x="4279.14" y="-230.3" font-family="Times,serif" font-size="14.00">Young Romance</text>
</g>
<!-- The Hostage -->
<g id="node46" class="node">
<title>The Hostage</title>
<ellipse fill="none" stroke="black" cx="4279.14" cy="-90" rx="69.59" ry="18"/>
<text text-anchor="middle" x="4279.14" y="-86.3" font-family="Times,serif" font-size="14.00">The Hostage</text>
</g>
<!-- Young Romance&#45;&#45;The Hostage -->
<g id="edge45" class="edge">
<title>Young Romance&#45;&#45;The Hostage</title>
<path fill="none" stroke="black" d="M4235.79,-218.52C4218.04,-210.2 4199.31,-197.79 4189.14,-180 4181.2,-166.11 4181.2,-157.89 4189.14,-144 4199.67,-125.58 4219.38,-112.93 4237.67,-104.62"/>
</g>
<!-- The Love Mask -->
<g id="node47" class="node">
<title>The Love Mask</title>
<ellipse fill="none" stroke="black" cx="4279.14" cy="-162" rx="80.69" ry="18"/>
<text text-anchor="middle" x="4279.14" y="-158.3" font-family="Times,serif" font-size="14.00">The Love Mask</text>
</g>
<!-- Young Romance&#45;&#45;The Love Mask -->
<g id="edge46" class="edge">
<title>Young Romance&#45;&#45;The Love Mask</title>
<path fill="none" stroke="black" d="M4279.14,-215.7C4279.14,-204.85 4279.14,-190.92 4279.14,-180.1"/>
</g>
<!-- Those Without Sin -->
<g id="node48" class="node">
<title>Those Without Sin</title>
<ellipse fill="none" stroke="black" cx="4333.14" cy="-18" rx="96.38" ry="18"/>
<text text-anchor="middle" x="4333.14" y="-14.3" font-family="Times,serif" font-size="14.00">Those Without Sin</text>
</g>
<!-- Young Romance&#45;&#45;Those Without Sin -->
<g id="edge47" class="edge">
<title>Young Romance&#45;&#45;Those Without Sin</title>
<path fill="none" stroke="black" d="M4319.42,-218.1C4337.21,-209.55 4356.85,-197.06 4369.14,-180 4392.79,-147.19 4388.23,-131.45 4388.14,-91"/>
</g>
<!-- The Hostage&#45;&#45;Those Without Sin -->
<g id="edge61" class="edge">
<title>The Hostage&#45;&#45;Those Without Sin</title>
<path fill="none" stroke="black" d="M4292.22,-72.05C4300.58,-61.21 4311.4,-47.18 4319.82,-36.28"/>
</g>
<!-- The Love Mask&#45;&#45;The Hostage -->
<g id="edge54" class="edge">
<title>The Love Mask&#45;&#45;The Hostage</title>
<path fill="none" stroke="black" d="M4279.14,-143.7C4279.14,-132.85 4279.14,-118.92 4279.14,-108.1"/>
</g>
<!-- The Love Mask&#45;&#45;Those Without Sin -->
<g id="edge55" class="edge">
<title>The Love Mask&#45;&#45;Those Without Sin</title>
<path fill="none" stroke="black" d="M4331.78,-148.3C4359.67,-138.1 4388.21,-120.46 4388.14,-91"/>
<path fill="none" stroke="black" d="M4388.14,-89C4388.1,-67.21 4371.42,-48.19 4356.44,-35.49"/>
</g>
<!-- Little Eve Edgarton -->
<g id="node49" class="node">
<title>Little Eve Edgarton</title>
<ellipse fill="none" stroke="black" cx="4518.14" cy="-234" rx="102.88" ry="18"/>
<text text-anchor="middle" x="4518.14" y="-230.3" font-family="Times,serif" font-size="14.00">Little Eve Edgarton</text>
</g>
<!-- Molly Make&#45;Believe -->
<g id="node50" class="node">
<title>Molly Make&#45;Believe</title>
<ellipse fill="none" stroke="black" cx="4518.14" cy="-162" rx="102.08" ry="18"/>
<text text-anchor="middle" x="4518.14" y="-158.3" font-family="Times,serif" font-size="14.00">Molly Make&#45;Believe</text>
</g>
<!-- Little Eve Edgarton&#45;&#45;Molly Make&#45;Believe -->
<g id="edge53" class="edge">
<title>Little Eve Edgarton&#45;&#45;Molly Make&#45;Believe</title>
<path fill="none" stroke="black" d="M4518.14,-215.7C4518.14,-204.85 4518.14,-190.92 4518.14,-180.1"/>
</g>
<!-- Bab&#39;s Diary -->
<g id="node51" class="node">
<title>Bab&#39;s Diary</title>
<ellipse fill="none" stroke="black" cx="4703.14" cy="-234" rx="64.19" ry="18"/>
<text text-anchor="middle" x="4703.14" y="-230.3" font-family="Times,serif" font-size="14.00">Bab&#39;s Diary</text>
</g>
<!-- The Knife -->
<g id="node52" class="node">
<title>The Knife</title>
<ellipse fill="none" stroke="black" cx="4703.14" cy="-162" rx="55.49" ry="18"/>
<text text-anchor="middle" x="4703.14" y="-158.3" font-family="Times,serif" font-size="14.00">The Knife</text>
</g>
<!-- Bab&#39;s Diary&#45;&#45;The Knife -->
<g id="edge56" class="edge">
<title>Bab&#39;s Diary&#45;&#45;The Knife</title>
<path fill="none" stroke="black" d="M4703.14,-215.7C4703.14,-204.85 4703.14,-190.92 4703.14,-180.1"/>
</g>
<!-- The Butcher Boy -->
<g id="node53" class="node">
<title>The Butcher Boy</title>
<ellipse fill="none" stroke="black" cx="4910.14" cy="-234" rx="88.28" ry="18"/>
<text text-anchor="middle" x="4910.14" y="-230.3" font-family="Times,serif" font-size="14.00">The Butcher Boy</text>
</g>
<!-- Coney Island -->
<g id="node54" class="node">
<title>Coney Island</title>
<ellipse fill="none" stroke="black" cx="4872.14" cy="-162" rx="70.69" ry="18"/>
<text text-anchor="middle" x="4872.14" y="-158.3" font-family="Times,serif" font-size="14.00">Coney Island</text>
</g>
<!-- The Butcher Boy&#45;&#45;Coney Island -->
<g id="edge57" class="edge">
<title>The Butcher Boy&#45;&#45;Coney Island</title>
<path fill="none" stroke="black" d="M4900.95,-216.05C4895.06,-205.21 4887.44,-191.18 4881.52,-180.28"/>
</g>
<!-- Good Night, Nurse! -->
<g id="node55" class="node">
<title>Good Night, Nurse!</title>
<ellipse fill="none" stroke="black" cx="4921.14" cy="-90" rx="102.08" ry="18"/>
<text text-anchor="middle" x="4921.14" y="-86.3" font-family="Times,serif" font-size="14.00">Good Night, Nurse!</text>
</g>
<!-- The Butcher Boy&#45;&#45;Good Night, Nurse! -->
<g id="edge58" class="edge">
<title>The Butcher Boy&#45;&#45;Good Night, Nurse!</title>
<path fill="none" stroke="black" d="M4928.31,-216.22C4937.35,-206.61 4947.36,-193.75 4952.14,-180 4957.41,-164.89 4956.33,-159.44 4952.14,-144 4948.63,-131.04 4941.07,-117.99 4934.29,-108.09"/>
</g>
<!-- Coney Island&#45;&#45;Good Night, Nurse! -->
<g id="edge60" class="edge">
<title>Coney Island&#45;&#45;Good Night, Nurse!</title>
<path fill="none" stroke="black" d="M4884.01,-144.05C4891.6,-133.21 4901.42,-119.18 4909.05,-108.28"/>
</g>
<!-- The Pullman Bride -->
<g id="node56" class="node">
<title>The Pullman Bride</title>
<ellipse fill="none" stroke="black" cx="5113.14" cy="-234" rx="96.68" ry="18"/>
<text text-anchor="middle" x="5113.14" y="-230.3" font-family="Times,serif" font-size="14.00">The Pullman Bride</text>
</g>
<!-- The Battle Royal -->
<g id="node57" class="node">
<title>The Battle Royal</title>
<ellipse fill="none" stroke="black" cx="5113.14" cy="-162" rx="87.99" ry="18"/>
<text text-anchor="middle" x="5113.14" y="-158.3" font-family="Times,serif" font-size="14.00">The Battle Royal</text>
</g>
<!-- The Pullman Bride&#45;&#45;The Battle Royal -->
<g id="edge63" class="edge">
<title>The Pullman Bride&#45;&#45;The Battle Royal</title>
<path fill="none" stroke="black" d="M5113.14,-215.7C5113.14,-204.85 5113.14,-190.92 5113.14,-180.1"/>
</g>
<!-- En vinternat -->
<g id="node58" class="node">
<title>En vinternat</title>
<ellipse fill="none" stroke="black" cx="5297.14" cy="-234" rx="69.59" ry="18"/>
<text text-anchor="middle" x="5297.14" y="-230.3" font-family="Times,serif" font-size="14.00">En vinternat</text>
</g>
<!-- Vor tids helte -->
<g id="node59" class="node">
<title>Vor tids helte</title>
<ellipse fill="none" stroke="black" cx="5297.14" cy="-162" rx="73.39" ry="18"/>
<text text-anchor="middle" x="5297.14" y="-158.3" font-family="Times,serif" font-size="14.00">Vor tids helte</text>
</g>
<!-- En vinternat&#45;&#45;Vor tids helte -->
<g id="edge64" class="edge">
<title>En vinternat&#45;&#45;Vor tids helte</title>
<path fill="none" stroke="black" d="M5297.14,-215.7C5297.14,-204.85 5297.14,-190.92 5297.14,-180.1"/>
</g>
<!-- Social Briars -->
<g id="node60" class="node">
<title>Social Briars</title>
<ellipse fill="none" stroke="black" cx="5479.14" cy="-234" rx="70.39" ry="18"/>
<text text-anchor="middle" x="5479.14" y="-230.3" font-family="Times,serif" font-size="14.00">Social Briars</text>
</g>
<!-- Cupid Forecloses -->
<g id="node61" class="node">
<title>Cupid Forecloses</title>
<ellipse fill="none" stroke="black" cx="5479.14" cy="-162" rx="90.18" ry="18"/>
<text text-anchor="middle" x="5479.14" y="-158.3" font-family="Times,serif" font-size="14.00">Cupid Forecloses</text>
</g>
<!-- Social Briars&#45;&#45;Cupid Forecloses -->
<g id="edge65" class="edge">
<title>Social Briars&#45;&#45;Cupid Forecloses</title>
<path fill="none" stroke="black" d="M5479.14,-215.7C5479.14,-204.85 5479.14,-190.92 5479.14,-180.1"/>
</g>
</g>
</svg>
